<svg xmlns="http://www.w3.org/2000/svg" viewBox="0 0 159 150.41"><title>logo_1</title><g id="Layer_2" data-name="Layer 2"><g id="Layer_3" data-name="Layer 3"><rect width="159" height="150.41" style="fill:#dfa700"/><path d="M90.12,73.92a55.89,55.89,0,0,0,2.63,22.24,53.53,53.53,0,0,0,11.88,19.64,61.6,61.6,0,0,0,19.49,13.76,70.45,70.45,0,0,0,23.87,6,72.14,72.14,0,0,1-25.09-2.63,67,67,0,0,1-23.05-11.83A62.42,62.42,0,0,1,83,100.35a68.31,68.31,0,0,1-7-26.43Z" style="fill:#543f00"/><path d="M39,131.8,43.24,21.46l.13-3.3,2.87-.74c.64-.17,1.12-.27,1.67-.39l1.58-.31c1-.19,2.1-.37,3.15-.52q3.13-.45,6.3-.68a78.71,78.71,0,0,1,12.66.08A60,60,0,0,1,84.09,18a43.48,43.48,0,0,1,11.52,5.51,37.27,37.27,0,0,1,9.14,8.79,41.52,41.52,0,0,1,5.76,11.06,56.59,56.59,0,0,1,2.73,12,82.26,82.26,0,0,1,.57,12.14,81.1,81.1,0,0,0-1.61-12,54.58,54.58,0,0,0-3.65-11.36,38.92,38.92,0,0,0-6.27-9.85,33.63,33.63,0,0,0-8.9-7.2C86.71,23.37,79,22,71.29,21.93a71.8,71.8,0,0,0-11.52.94c-1.9.3-3.8.68-5.67,1.12-.94.22-1.87.46-2.78.71L50,25.1c-.43.13-.92.28-1.25.4l3-4L55.93,131.8Z" style="fill:#543f00"/></g></g></svg>
