<svg id="Layer_1" data-name="Layer 1" xmlns="http://www.w3.org/2000/svg" viewBox="0 0 300 300"><title>portals</title><ellipse cx="150.35" cy="150.19" rx="113.23" ry="113.46" style="fill:none;stroke:#262261;stroke-miterlimit:10;stroke-width:2.1448426246643066px"/><circle cx="150.35" cy="150.19" r="146.61" style="fill:none;stroke:#262261;stroke-miterlimit:10;stroke-width:3.21726393699646px"/><path d="M61.79,247.27c-1.53,1.44-3,3.09-2.74,5.1s2.13,3.78,3.4,5.18,2.91,3,5.14,2.61,3.83-2.46,5-4.43c.67-1.14-.56-2.53-1.39-1.18-2.17,3.57-4.57,3.94-7,1.64-1.7-1.7-4.6-4.26-1.54-7.2C63.65,248.06,62.87,246.25,61.79,247.27Z" style="fill:#79489e"/><path d="M69,255.46c1.16-1.91,2.65-4.16,4.76-4.67,1.62-.38,2.92.54,4.33.81-.17,0,.09-1.95-.42-2-1.55-.27-2.86-1.45-4.72-.73s-3.32,2.8-4.45,4.6C68.21,253.93,69,255.46,69,255.46Z" style="fill:#79489e"/><path d="M66.09,251.91c1.79-1.75,3.75-3.79,4.3-6.21a5.2,5.2,0,0,0-1.29-5c-.83-.85-.85,1-.4,1.44,2.1,2.14-1.54,6-3.55,7.91C64.51,250.69,65.56,252.43,66.09,251.91Z" style="fill:#79489e"/><path d="M140.67,273.16c-1.52,2.27-3.53,3.84-5.34,5.75a30.71,30.71,0,0,0-4.78,7.06l1.19,1.93a44.11,44.11,0,0,0-.93-16.3c-.11-.48-1-1.93-.95-1.63a43.86,43.86,0,0,1,.67,16.07c-.07.41,1.15,2,1.19,1.93a29.89,29.89,0,0,1,4.76-7.07c1.81-2,3.83-3.55,5.34-5.82C142,274.76,140.76,273,140.67,273.16Z" style="fill:#79489e"/><path d="M139.56,285.61a15.72,15.72,0,0,0-2.86-3.81,13.67,13.67,0,0,0-3.85-2.87,7.81,7.81,0,0,0-2.07-.67,5.79,5.79,0,0,0-2.07-.08,6.27,6.27,0,0,0-3.93,2.5c-.25.3,1.2,1.9,1.51,1.52a5.5,5.5,0,0,1,4.46-2.32,6.55,6.55,0,0,1,2.2.27,11.41,11.41,0,0,1,5,4.55C138.18,285.16,139.79,286.07,139.56,285.61Z" style="fill:#79489e"/><path d="M97.66,275.8c-.6.2-3.91,1-3.89,0,.06-1.4,3.33-2.74,4.08-3.07,1.5-.61,3-1.23,4.52-1.78a3.61,3.61,0,0,0,2.57-2.08c.24-.62-.57-2.23-.65-2.05-.58,1.42-1.75,1.65-2.84,2.07-1.27.5-2.52.93-3.79,1.46-1.67.69-4.13,1.74-4.8,4a4.42,4.42,0,0,0,.43,3.14c1,1.59,3.42,1.05,5,.53C98.55,277.94,98.12,275.65,97.66,275.8Z" style="fill:#79489e"/><path d="M95.18,271.48l-1.07-.71.13,1.37c.48-1.24,2.78-2.28,3.71-2.94,1.27-.91,2.56-1.73,3.75-2.77a4.93,4.93,0,0,0,1.92-4.67c-.18-1.19-1.55-1.16-1.35.34s-1.61,2.89-3.73,4.26S94,269,93.34,269.9c-1.5,2,.52,3.37,1.87,3.81C96.23,274.05,96,271.74,95.18,271.48Z" style="fill:#79489e"/><path d="M217.21,272.47a4.28,4.28,0,0,0,4-.44,8.24,8.24,0,0,0,2.71-3.32,8,8,0,0,0,.31-6.39,31.89,31.89,0,0,1-1.35-5.71c-.17-2,.3-3.5,2.67-3.05,1.46.26.53-1.08-.5-1.27a3.34,3.34,0,0,0-3.45.94,5.3,5.3,0,0,0-.8,4c.29,2.58,2,5.17,1.83,7.79a9.49,9.49,0,0,1-1.67,4.28c-1,1.44-2.3,2.52-3.53,2.06S215.91,272,217.21,272.47Z" style="fill:#79489e"/><path d="M211.7,269.2c2.89.84,5-3.15,5.86-5.39a6.59,6.59,0,0,0,.64-3.54c-.09-.59-1.23-3.19-1.86-5.38s-.76-4,1.35-3c.8.38,1.26-1.66.55-2-2.38-1.05-3.57.86-3.6,3.2a15.56,15.56,0,0,0,1.21,5.33c.64,1.72,1.25,2.4.83,4.2s-2.33,5-4.38,4.45C211.57,266.9,210.83,269,211.7,269.2Z" style="fill:#79489e"/><path d="M283.4,184.61a3.11,3.11,0,0,1-3.49,2.64c-2.31-.12-2.76-1.48-2.57-3,.09-.74-1.09-1-1.18-.26-.24,1.94.25,4,3.17,4.43a4.35,4.35,0,0,0,5.25-3.56C284.64,184.07,283.46,183.82,283.4,184.61Z" style="fill:#79489e"/><path d="M278.56,188.22a21.73,21.73,0,0,0-.05,6.74c.22,1.35.83,6.77-1.46,4.24-.73-.8-1-2.52-1.55-3.46a17.76,17.76,0,0,0-1.92-2.79,79.94,79.94,0,0,0-6.69-6.46c-.53-.49-1.39-.16-1.28.38a42,42,0,0,1,1.12,6.38,18.35,18.35,0,0,1-.66,6.29c-.23.68,1.14,1,1.34.37a20,20,0,0,0,.71-6.61,47.49,47.49,0,0,0-1.15-6.69l-1.28.38c3,2.83,6.53,5.57,8.46,9.15,1,1.8,1.6,5.14,4,6.23a.85.85,0,0,0,1-.18c1.19-1.23,1.07-3.68,1-5.27s-.3-2.91-.39-4.31a18.24,18.24,0,0,1,0-2.09,10.68,10.68,0,0,1,.21-2.1C280.08,187.66,278.69,187.58,278.56,188.22Z" style="fill:#79489e"/><path d="M205.74,271.25a28.92,28.92,0,0,0-2.61-5.22.78.78,0,0,0-.8-.37A11,11,0,0,0,198.9,267c-1.14.6-2.25,1.3-3.3,1.8a1.3,1.3,0,0,0-.54,1.46c.87,2.47,2.57,9.8,5.31,10,1.41.08,3.83-1.79,5-2.43a86.7,86.7,0,0,1,8.46-3.46c1-.35.92-2.6-.31-2.17-1.7.56-3.31,1.29-5,1.92a47.86,47.86,0,0,0-4.83,2.22c-1.31.63-2.56,2-3.73.88-1.51-1.5-2.63-5.9-3.34-7.86l-.53,1.46a31.94,31.94,0,0,1,4.46-2.13c2.07-.69,2.47,1.24,3.49,3.49C204.72,273.58,206.28,272.36,205.74,271.25Z" style="fill:#79489e"/><path d="M210.25,269.81c-1.7-3.82-3.58-7.54-5.61-11.19a.31.31,0,0,0-.51-.08,32.31,32.31,0,0,1-10,5.44c-.51.17-1.15,2.22-.43,2a48.39,48.39,0,0,0,4.51-1.76,37.14,37.14,0,0,0,4.18-2.45c.67-.46,1-1.06,1.91-.33a18.64,18.64,0,0,1,1.72,3.33c1.12,2.25,2.16,4.52,3.14,6.83C209.44,272.29,210.59,270.57,210.25,269.81Z" style="fill:#79489e"/><path d="M167.83,287.28a22.9,22.9,0,0,1,.37-5.81c.47-2,1.73-4.25,3.56-4,1,.13,1.75-1.28.44-1.46a4.64,4.64,0,0,0-2.84.49,5.38,5.38,0,0,0-2.22,2.24c-1.35,2.36-1.42,5.55-1.4,8.46C165.74,288.21,167.85,288.32,167.83,287.28Z" style="fill:#79489e"/><path d="M173.79,283.44a35,35,0,0,0-.22-7.78,7.76,7.76,0,0,0-1.06-3.57,2.68,2.68,0,0,0-2.47-.88c-1.88,0-3.76-.08-5.62-.2-.71-.05-1.77,1.38-.56,1.48,1.84.14,6.41-.71,7.52,1.69a14.17,14.17,0,0,1,.61,4.47,34.1,34.1,0,0,1-.12,5.35C171.78,284.92,173.72,284.31,173.79,283.44Z" style="fill:#79489e"/><path d="M161.91,279.11a29.29,29.29,0,0,1-4.42,5.63,35.32,35.32,0,0,0-4.71,5.55l1.78-1.24c-2.2-3.62-4.35-7.08-6.44-10.65-.16-.28-1.77,1.12-1.72,1.21,2.06,3.52,4.19,7.17,6.37,10.74.16.27,1.65-1,1.78-1.24,2.69-4.25,6.6-7,8.91-11.25C163.3,278.15,162.23,278.53,161.91,279.11Z" style="fill:#79489e"/><path d="M156,280.11c-.58-1.18-1.52-3.8-2.61-6.05s-2.33-4.12-3.72-3.93-2.78,2.3-3.82,3.24c-2.09,2-4.27,3.72-6.55,5.55-1.15.9.09,1.56.93.89,1.3-1,2.57-2.06,3.81-3.12s2.79-3.15,4.07-3.71a1.81,1.81,0,0,1,2,.38,7.53,7.53,0,0,1,1.67,2.28c1,1.92,1.86,4.39,2.54,5.82C154.79,282.3,156.44,281,156,280.11Z" style="fill:#79489e"/><path d="M120.2,285.39q1.41-4.12,2.65-8.31c.37-1.26-1.54-.83-1.83.1q-1.29,4.17-2.76,8.28C117.81,286.7,119.89,286.32,120.2,285.39Z" style="fill:#79489e"/><path d="M122.41,276.12a40.25,40.25,0,0,1-3.19-8.77c-.07-.31-.41-1.3-.81-.78-.88,1.13-5.19-.27-6.16-.53-.67-.14-.55,2.21.1,2.34l1.22.26,1.24.21c.83.13,1.66.26,2.49.34s1.22.22,1.82-.55l-.83-.78a41.38,41.38,0,0,0,3.36,9.38C122.33,278.59,122.9,277.1,122.41,276.12Z" style="fill:#79489e"/><path d="M119.52,271.85c-1.36.91-2.71,1.82-4.07,2.84-.29.21.46,2.37.6,2.27.69-.51,1.37-1,2-1.47s1.37-1,2.06-1.43C120.39,273.9,119.71,271.72,119.52,271.85Z" style="fill:#79489e"/><path d="M80.46,269A11.29,11.29,0,0,0,83,263.61a9.67,9.67,0,0,0-.53-5.39,3.79,3.79,0,0,0-.73-1.17c0-.06-.48-.54-.32-.17,1.3,3.07.4,7.44-2.28,10.46C79,267.56,80.38,269.1,80.46,269Z" style="fill:#79489e"/><path d="M78.27,266a8.93,8.93,0,0,0,.56-6.5c-.35-1.13-2.29-.53-1.87.79a6.57,6.57,0,0,1-.57,4.91A1,1,0,1,0,78.27,266Z" style="fill:#79489e"/><path d="M86,269.86a15.23,15.23,0,0,0,2.7-9.72A9.39,9.39,0,0,0,84.81,253c-.66-.44-2.38.44-1.37,1.12a6.66,6.66,0,0,1,2.34,2.81,9.2,9.2,0,0,1,.9,3.75A14.35,14.35,0,0,1,84,269.29C83.38,270.18,85.38,270.71,86,269.86Z" style="fill:#79489e"/><path d="M59.14,242.75A12.53,12.53,0,0,1,55.73,245a8.07,8.07,0,0,1-3.72.67,5.21,5.21,0,0,1-2.86-.75l-.56-2.06-.49-2.1c.18-1.06,1.52-2.37,2.21-3.17,1.2-1.39,2.95-3.43,4.55-4.29a7.81,7.81,0,0,1,4.19-.75,7.06,7.06,0,0,1,3.54,1.07c1,.73,1.6-1.11.91-1.63a6.67,6.67,0,0,0-1.85-.93,10.23,10.23,0,0,0-2.32-.53,9,9,0,0,0-5.11.91c-3.17,1.7-6.94,6-8,9.26a4.86,4.86,0,0,0,.24,4.18,6.53,6.53,0,0,0,3.3,2.46,8,8,0,0,0,5.49.07,13.73,13.73,0,0,0,5.14-3.18C61.11,243.54,60.08,241.89,59.14,242.75Z" style="fill:#79489e"/><path d="M55.86,236.47a5.08,5.08,0,0,0-2.27,6c.17.4.37-.28.43-.45a2.67,2.67,0,0,0,.1-1.52c-.3-.72.73-1.51,1.41-1.87S56,236.41,55.86,236.47Z" style="fill:#79489e"/><path d="M35.55,232.05c2.68-.48,5.32-1,8-1.59s5.27-1.27,7.85-2c.55-.15,1.22-2.25.6-2.08-5.21,1.42-10.4,2.53-15.78,3.48C35.58,230,34.9,232.16,35.55,232.05Z" style="fill:#79489e"/><path d="M43.86,228.23c.55-1.9,1.49-5,.75-6.57-.41-1-1.78-.63-2.89-.47a52.49,52.49,0,0,0-5.25,1.06c-.65.16-.91,2.23-.71,2.19a48.19,48.19,0,0,1,5.88-1.18c1.38-.18,1.9-.17,2.2,1.2a8.67,8.67,0,0,1-.58,3.74C42.89,229.47,43.48,229.52,43.86,228.23Z" style="fill:#79489e"/><path d="M49.05,222.41a4.86,4.86,0,0,0,3.67-3.62c.1-.6-1.71-1.22-1.81-.67a4.09,4.09,0,0,1-3,3.07C47,221.41,48.42,222.57,49.05,222.41Z" style="fill:#79489e"/><path d="M25.23,215.47a40.43,40.43,0,0,0,4.47.22,8.35,8.35,0,0,0,4.39-1.3,6.13,6.13,0,0,0,2.57-3.84,3.83,3.83,0,0,0-2-4.69,18.44,18.44,0,0,0-6-1.84c-.24,0-1,2-.56,2.11a32.64,32.64,0,0,1,5.21,1.22c1.75.63,3,1.59,2.49,3.26s-2.38,2.56-4.43,2.79a31.12,31.12,0,0,1-5.7-.14C25.34,213.23,24.87,215.44,25.23,215.47Z" style="fill:#79489e"/><path d="M39.28,215.07c-1.49-.45-4.4-.77-5.29-1.95s-.17-3.18,1.61-4c2.88-1.31,6.92-1.4,9.83-2a1.94,1.94,0,0,1-.09-.23c-.06-.14-.14-.33-.24-.52-.2-.37-.47-.72-.81-.66-1.77.33-5,.52-7.67,1.18s-4.76,1.85-4.12,4.4a5.62,5.62,0,0,0,1.1,2.23,6.52,6.52,0,0,0,1.88,1.39,29.53,29.53,0,0,0,4.92,1.67C40.32,216.56,39.87,215.25,39.28,215.07Z" style="fill:#79489e"/><path d="M16.52,191.1c2.72,1.68,5.54,3.22,8.25,4.67s5.62,2.73,8.36,3.94c.25.11-.73-1.08-1.15-1.27-2.75-1.25-5.63-2.56-8.32-4.07s-5.55-3.06-8.2-4.8C15.22,189.41,16.12,190.85,16.52,191.1Z" style="fill:#79489e"/><path d="M26.1,195.37A8.43,8.43,0,0,1,28,191.81c1.2-1.06,2.39-.45,3.37.1.54.29,1.32.94,2.2,1.44a3.84,3.84,0,0,0,2.6.68,2.74,2.74,0,0,0,2.22-2.49,4.47,4.47,0,0,0-.54-2.85c-.63-1-.84.68-.54,1.14s-.56,2.06-1.49,2.38-2.15-.7-2.78-1.06a11.73,11.73,0,0,0-3.55-1.79c-2.62-.5-3.89,2.94-4.44,4.53C24.9,194.43,25.85,196.1,26.1,195.37Z" style="fill:#79489e"/><path d="M17.44,195.81c1.77-2.2,3.53-4.33,5.39-6.4.74-.82.42-2-.66-.87-1.91,2.08-3.68,4.19-5.45,6.38C16,195.79,16.44,197.08,17.44,195.81Z" style="fill:#79489e"/><path d="M13,171.82c1.52,1.65,3.45,3.52,5.05,5.45s3.07,3.91,3.39,6c0,.25,1.46,1.5,1.75,1.24a31.54,31.54,0,0,1,10-5.64,3.55,3.55,0,0,0-.59-.69c-.34-.32-.76-.63-1.05-.53a31.81,31.81,0,0,0-10.11,5.56c.56.42,1.17.83,1.75,1.24a11.13,11.13,0,0,0-1.37-3.32,21.3,21.3,0,0,0-2.44-3.19c-1.82-2.08-3.9-4.12-5.61-5.94C13.28,171.41,12,170.67,13,171.82Z" style="fill:#79489e"/><path d="M18.65,170.78c1.76,3,4.45,6.65,9.39,5.41,1-.25.84-2.11-.08-1.9-4.23,1-6.57-2-8-4.6C19.29,168.52,18.21,170,18.65,170.78Z" style="fill:#79489e"/><path d="M258.89,232.15a26.11,26.11,0,0,1-4.35-8.81c-.59-2.85-.3-5.54,2-7.62.81-.73-.69-2.32-1.58-1.48a7.33,7.33,0,0,0-2.26,4.16,15.33,15.33,0,0,0-.1,5.21c.52,3.52,2.63,6.68,4.89,9.92C258.31,234.74,259.64,233.18,258.89,232.15Z" style="fill:#79489e"/><path d="M263.76,225.69a12.17,12.17,0,0,0-4-2.54c-.41-.16-.79,1.84-.23,2.07a11.54,11.54,0,0,1,3.82,2.46c.16.16.4-.22.54-.7S264,225.91,263.76,225.69Z" style="fill:#79489e"/><path d="M284.09,167.68a22.26,22.26,0,0,1-1,3.54,40.87,40.87,0,0,0-1.49,4.29,13,13,0,0,0-.55,4.22,5,5,0,0,0,1.81,3.48l.68-1.83c-4.66-1.58-9.35-2.82-14-1.75-.91.22-.67,2.1.39,1.88,4.36-1,8.72.29,13.09,1.83,1.12.4,1.31-1.33.68-1.84-1.53-1.24-.56-4.3-.27-5.57.28-1.05.67-2.05,1-3.08a23.34,23.34,0,0,0,1.23-4.62C285.86,167.14,284.3,166.34,284.09,167.68Z" style="fill:#79489e"/><path d="M282.21,172.94c-1,.89-3.61.08-4.87-.31a17.42,17.42,0,0,1-4.63-2.3c-.66-.45-1.17,1.29-.5,1.76a18.42,18.42,0,0,0,5.61,2.68c1.51.42,3.72,1,4.86,0C283.19,174.3,282.9,172.3,282.21,172.94Z" style="fill:#79489e"/><path d="M239.12,260.81a36.15,36.15,0,0,1-.27-10.9,1.18,1.18,0,0,0-.61-1.15c-3.48-2.48-6.31-6.19-9.66-8.94-1-.85-2.52,0-1.32,1,3.48,2.94,6.35,6.77,10,9.42l-.61-1.16a36.16,36.16,0,0,0-.28,5.82,40.72,40.72,0,0,0,.55,6.06C237.11,262.25,239.35,262.18,239.12,260.81Z" style="fill:#79489e"/><path d="M232.79,254.23c.07-1.45-.1-2.95-.17-4.42a9,9,0,0,1,.46-4.13s-2-1.07-2.18-.7c-1,2.46-.17,5.59-.31,8.48C230.57,253.74,232.77,254.45,232.79,254.23Z" style="fill:#79489e"/><path d="M193.94,281.89A168.55,168.55,0,0,1,187.77,264c-.18-.61-.74-.46-1-.32a9.49,9.49,0,0,0-2.91,2.85c-.84,1.2-1.61,2.57-2.45,3.77-1.11,1.52-2.28,3-3.46,4.56-.44.57-1.3,1.36-1.38,2.29-.23,2.46,2.61,2.18,3.92,2.5,1.93.48,3.86,1.09,5.79,1.67s3.91,1.37,5.89,2.14c.87.32,2-1.55.86-2-2.24-.8-4.48-1.7-6.68-2.36-1.1-.34-2.19-.62-3.28-.9-.89-.25-3.09-.27-3.8-.93-.81.05-.85-.43-.13-1.44l1.07-1.38c.7-.93,1.41-1.79,2.07-2.76s1.5-2.41,2.31-3.6a8.84,8.84,0,0,1,2.7-2.77l-1-.32a165.76,165.76,0,0,0,5.92,18C192.64,284.16,194.35,282.87,193.94,281.89Z" style="fill:#79489e"/><path d="M194.46,270.45c-1,1.21-2,2.4-2.94,3.63s-1.93,2.52-2.86,3.75c-1.91,2.48-3.73,5.29-5.61,8.2-.8,1.26.7,2,1.38,1,1.81-2.88,3.59-5.59,5.45-8s3.73-4.88,5.66-7.24C196.34,270.73,195.24,269.44,194.46,270.45Z" style="fill:#79489e"/><path d="M276.22,151.62a46.11,46.11,0,0,1,4.54,3.3,31.74,31.74,0,0,1,4,3.86c1.66,1.88,2.92,4.14,6.14,3.91,1.22-.09,1.53-1.77.07-1.64-2.6.18-5.48-4.69-7.13-6.07a45.44,45.44,0,0,0-6.14-4.65C276.81,149.78,275.25,151,276.22,151.62Z" style="fill:#79489e"/><path d="M283.42,156.18a50.24,50.24,0,0,1-7.59,5,5,5,0,0,1-5-.68c-1.8-1.32-1-2.22.13-3.44.4-.43-.61-1.82-.9-1.47-1.89,2.23-2.71,4.17.54,6.19,1.86,1.15,3.78,2.05,6,1.08,2.77-1.28,5.24-3.3,7.77-5.06C284.82,157.46,284,155.79,283.42,156.18Z" style="fill:#79489e"/><path d="M277.14,155c-.21,1.78-1.62,3.24-3.7,4-.72.26-.07,1.85.49,1.66,2.4-.85,4-2.51,4.35-4.59a1.25,1.25,0,0,0-.41-1.19C277.58,154.68,277.2,154.59,277.14,155Z" style="fill:#79489e"/><path d="M271.33,214.08a22.6,22.6,0,0,0,7.77-4.5c.46-.41.7-1.52-.28-1.77a105.15,105.15,0,0,0-11.21-2.07,103.08,103.08,0,0,1-11.16-2.13.86.86,0,0,0-.92,1.38c1.72,2.23,3.51,4.48,5.3,6.71.86,1.07,2.59,0,1.74-1q-2.81-3.36-5.39-6.67l-.92,1.39c7,2,14.66,2.45,21.78,4.38l-.28-1.77a21.62,21.62,0,0,1-3.35,2.45,23.69,23.69,0,0,1-3.86,1.75A1,1,0,0,0,271.33,214.08Z" style="fill:#79489e"/><path d="M244.81,227.23c-2.45,2.72-3.48,6.57-3.27,10.72a20.85,20.85,0,0,0,5.31,12.55c.45.49,2.3.41,2.26.36a19.54,19.54,0,0,1-3.83-6,20,20,0,0,1-1.49-6.38,16.9,16.9,0,0,1,.08-3,15.1,15.1,0,0,1,.53-2.88,13.46,13.46,0,0,1,2.6-4.85C247.08,227.59,245.1,226.89,244.81,227.23Z" style="fill:#79489e"/><path d="M253.5,238.17c-3.95-4.52-8-8-13.61-8.94-.61-.11-1,1.77-.26,1.9,5.36.92,9.25,4.44,13,8.85C253.11,240.56,254,238.73,253.5,238.17Z" style="fill:#79489e"/><path d="M17.54,151.56a46,46,0,0,0,3.63,7.94c.73,1.25,1.49,2.48,2.29,3.67s1.77,2.32,2.71,3.43c.79.92,1.76-.73,1.23-1.34a45.91,45.91,0,0,1-8.33-14.53C18.6,149.48,17.22,150.69,17.54,151.56Z" style="fill:#79489e"/><path d="M13.43,156.76q4.93-1.26,9.94-2.09c.61-.11,1.9-1.65,1-1.51-3.34.51-6.66,1.16-9.94,2C13.87,155.26,12.62,157,13.43,156.76Z" style="fill:#79489e"/><path d="M15.59,159.26c3.59-.39,7.18-.67,10.79-.85.72,0,1.36-1.31,1.82-1.32-3.64.15-7.28.39-10.9.75C16.66,157.9,15.83,159.23,15.59,159.26Z" style="fill:#79489e"/><path d="M20.21,165.49A34.15,34.15,0,0,0,24,163.4,35,35,0,0,0,27.49,161c1.08-.86-.15-1.91-1.26-1a31.71,31.71,0,0,1-6.82,4.17C18.14,164.68,18.76,166.18,20.21,165.49Z" style="fill:#79489e"/><path d="M238.92,53.12c1.52-1.45,3-3.09,2.74-5.11s-2.13-3.77-3.41-5.18-2.9-3-5.13-2.6-3.83,2.46-5,4.43c-.67,1.14.55,2.52,1.39,1.17,2.16-3.56,4.56-3.93,6.94-1.63,1.71,1.69,4.61,4.26,1.55,7.2C237.05,52.33,237.83,54.14,238.92,53.12Z" style="fill:#79489e"/><path d="M231.68,44.93c-1.16,1.9-2.65,4.16-4.76,4.67-1.62.38-2.93-.54-4.33-.82.17,0-.1,1.95.42,2,1.54.26,2.86,1.44,4.71.73s3.32-2.8,4.46-4.61C232.49,46.46,231.68,44.93,231.68,44.93Z" style="fill:#79489e"/><path d="M234.62,48.47c-1.79,1.76-3.75,3.79-4.3,6.22a5.23,5.23,0,0,0,1.28,5c.84.85.86-1,.4-1.44-2.09-2.14,1.55-6,3.56-7.91C236.2,49.69,235.14,48,234.62,48.47Z" style="fill:#79489e"/><path d="M160,27.23c1.52-2.28,3.52-3.85,5.33-5.76a30.9,30.9,0,0,0,4.79-7L169,12.49a43.9,43.9,0,0,0,.93,16.3c.11.48,1,1.93.95,1.63a43.86,43.86,0,0,1-.67-16.07c.06-.42-1.15-2-1.19-1.93a30,30,0,0,1-4.76,7.06c-1.82,2-3.83,3.56-5.34,5.82C158.68,25.62,160,27.37,160,27.23Z" style="fill:#79489e"/><path d="M161.15,14.78A15.91,15.91,0,0,0,164,18.59a13.67,13.67,0,0,0,3.85,2.87,8.19,8.19,0,0,0,2.07.67,6,6,0,0,0,2.07.08,6.23,6.23,0,0,0,3.92-2.5c.25-.31-1.19-1.91-1.5-1.52A5.57,5.57,0,0,1,170,20.51a6.82,6.82,0,0,1-2.2-.27,11.32,11.32,0,0,1-5-4.56C162.52,15.23,160.91,14.32,161.15,14.78Z" style="fill:#79489e"/><path d="M203.05,24.58c.6-.2,3.91-1,3.89,0-.06,1.4-3.33,2.74-4.08,3.07-1.5.61-3,1.22-4.52,1.78a3.61,3.61,0,0,0-2.57,2.08,2.85,2.85,0,0,0,.64,2c.59-1.43,1.76-1.66,2.85-2.07,1.26-.51,2.52-.94,3.78-1.46,1.67-.69,4.14-1.75,4.8-4a4.41,4.41,0,0,0-.42-3.14c-1-1.59-3.42-1.05-5-.53C202.16,22.45,202.59,24.73,203.05,24.58Z" style="fill:#79489e"/><path d="M205.53,28.91l1.07.71-.13-1.37c-.48,1.24-2.79,2.27-3.71,2.94-1.27.9-2.56,1.73-3.76,2.77a4.93,4.93,0,0,0-1.92,4.66c.19,1.2,1.56,1.16,1.36-.33s1.61-2.89,3.72-4.26,4.52-2.61,5.21-3.54c1.5-2-.52-3.37-1.87-3.81C204.48,26.34,204.74,28.65,205.53,28.91Z" style="fill:#79489e"/><path d="M83.49,27.92a4.28,4.28,0,0,0-4,.43,8.19,8.19,0,0,0-2.7,3.33,8,8,0,0,0-.31,6.39,31.47,31.47,0,0,1,1.35,5.71c.17,2-.3,3.5-2.67,3-1.46-.27-.53,1.07.5,1.27a3.37,3.37,0,0,0,3.45-.94,5.38,5.38,0,0,0,.8-4c-.29-2.57-2-5.17-1.84-7.78a9.72,9.72,0,0,1,1.68-4.29c1-1.43,2.3-2.52,3.53-2.06S84.8,28.41,83.49,27.92Z" style="fill:#79489e"/><path d="M89,31.19c-2.89-.84-5,3.14-5.87,5.39a6.67,6.67,0,0,0-.63,3.54c.09.59,1.23,3.19,1.86,5.38s.75,4-1.35,3c-.81-.38-1.26,1.66-.55,2,2.38,1,3.57-.86,3.6-3.2a15.74,15.74,0,0,0-1.21-5.33c-.64-1.72-1.25-2.4-.83-4.2s2.32-5,4.38-4.45C89.14,33.48,89.87,31.44,89,31.19Z" style="fill:#79489e"/><path d="M17.31,115.77a3.09,3.09,0,0,1,3.49-2.63c2.31.12,2.76,1.48,2.57,3-.1.74,1.08,1,1.18.26.24-1.94-.25-4-3.17-4.43a4.33,4.33,0,0,0-5.25,3.56C16.07,116.31,17.25,116.56,17.31,115.77Z" style="fill:#79489e"/><path d="M22.15,112.17a21.74,21.74,0,0,0,0-6.74c-.22-1.35-.83-6.78,1.47-4.24.73.79,1,2.52,1.55,3.46a17.23,17.23,0,0,0,1.92,2.78,78.5,78.5,0,0,0,6.69,6.47c.52.49,1.39.15,1.28-.38A42.2,42.2,0,0,1,34,107.14a18.59,18.59,0,0,1,.65-6.29c.24-.68-1.13-1-1.33-.37a20,20,0,0,0-.71,6.61,47.49,47.49,0,0,0,1.15,6.69L35,113.4c-3-2.84-6.53-5.57-8.46-9.15-.95-1.8-1.6-5.14-4-6.23a.85.85,0,0,0-1,.18c-1.18,1.23-1.06,3.67-.95,5.27s.29,2.9.38,4.31a16.07,16.07,0,0,1,0,2.08,10.62,10.62,0,0,1-.22,2.1C20.63,112.72,22,112.8,22.15,112.17Z" style="fill:#79489e"/><path d="M95,29.13a29.38,29.38,0,0,0,2.62,5.23.77.77,0,0,0,.8.37,11,11,0,0,0,3.42-1.38c1.14-.6,2.26-1.3,3.31-1.8a1.29,1.29,0,0,0,.53-1.45c-.86-2.47-2.56-9.8-5.3-10-1.42-.09-3.83,1.79-5,2.43A87.66,87.66,0,0,1,86.85,26c-1,.35-.92,2.61.31,2.18,1.7-.57,3.31-1.29,5-1.92A50.17,50.17,0,0,0,97,24c1.31-.63,2.56-2,3.73-.88,1.5,1.5,2.63,5.9,3.33,7.85l.54-1.45a32.48,32.48,0,0,1-4.46,2.13c-2.07.68-2.47-1.24-3.49-3.5C96,26.8,94.43,28,95,29.13Z" style="fill:#79489e"/><path d="M90.46,30.57c1.69,3.83,3.57,7.54,5.61,11.19a.32.32,0,0,0,.51.09,29.55,29.55,0,0,1,4.77-3.18,28.47,28.47,0,0,1,5.26-2.26c.51-.17,1.15-2.22.43-2-1.53.52-3,1.1-4.51,1.77a38.18,38.18,0,0,0-4.19,2.45c-.67.45-1,1.05-1.9.33a18.74,18.74,0,0,1-1.72-3.34c-1.12-2.24-2.16-4.52-3.14-6.82C91.27,28.1,90.12,29.82,90.46,30.57Z" style="fill:#79489e"/><path d="M132.88,13.1a23.45,23.45,0,0,1-.37,5.82c-.48,1.94-1.73,4.25-3.57,4-1-.14-1.74,1.27-.44,1.45a4.59,4.59,0,0,0,2.85-.48,5.49,5.49,0,0,0,2.22-2.24c1.35-2.37,1.42-5.56,1.4-8.46C135,12.17,132.86,12.07,132.88,13.1Z" style="fill:#79489e"/><path d="M126.92,16.94a34.38,34.38,0,0,0,.22,7.78,7.77,7.77,0,0,0,1.06,3.58,2.72,2.72,0,0,0,2.47.88c1.88,0,3.76.07,5.62.19.71.06,1.77-1.38.56-1.47-1.84-.14-6.41.71-7.53-1.7a14.35,14.35,0,0,1-.6-4.46,34.1,34.1,0,0,1,.12-5.35C128.93,15.47,127,16.08,126.92,16.94Z" style="fill:#79489e"/><path d="M138.8,21.28a28.89,28.89,0,0,1,4.42-5.64,34.87,34.87,0,0,0,4.71-5.55l-1.79,1.24c2.21,3.62,4.36,7.09,6.45,10.66.16.28,1.77-1.12,1.72-1.21-2.06-3.52-4.19-7.17-6.37-10.75-.16-.26-1.66,1-1.78,1.24-2.69,4.25-6.6,7-8.91,11.26C137.41,22.24,138.48,21.86,138.8,21.28Z" style="fill:#79489e"/><path d="M144.69,20.28c.57,1.18,1.51,3.79,2.6,6s2.34,4.12,3.72,3.93S153.8,28,154.83,27c2.1-2,4.28-3.72,6.56-5.55,1.14-.91-.1-1.56-.93-.9-1.3,1-2.57,2.06-3.81,3.12s-2.8,3.16-4.07,3.72a1.84,1.84,0,0,1-2.05-.38,7.63,7.63,0,0,1-1.67-2.29c-1-1.92-1.85-4.38-2.54-5.82C145.92,18.09,144.26,19.42,144.69,20.28Z" style="fill:#79489e"/><path d="M180.51,15c-.95,2.75-1.82,5.52-2.65,8.32-.37,1.26,1.53.83,1.83-.1.86-2.78,1.78-5.55,2.76-8.29C182.89,13.69,180.82,14.07,180.51,15Z" style="fill:#79489e"/><path d="M178.3,24.27A40.22,40.22,0,0,1,181.48,33c.08.31.42,1.3.82.78.88-1.14,5.19.26,6.16.53.67.14.54-2.21-.1-2.34l-1.22-.26-1.25-.21c-.82-.14-1.65-.26-2.48-.34s-1.22-.22-1.82.55l.83.78a41.51,41.51,0,0,0-3.36-9.38C178.38,21.8,177.81,23.29,178.3,24.27Z" style="fill:#79489e"/><path d="M181.18,28.54c1.37-.92,2.72-1.82,4.08-2.85.29-.21-.46-2.36-.61-2.26-.68.51-1.36,1-2,1.46s-1.38,1-2.06,1.44C180.32,26.48,181,28.67,181.18,28.54Z" style="fill:#79489e"/><path d="M220.25,31.37a11.16,11.16,0,0,0-2.57,5.41,9.67,9.67,0,0,0,.53,5.39,3.79,3.79,0,0,0,.72,1.16c.06.06.48.54.33.18-1.3-3.08-.4-7.45,2.28-10.46C221.73,32.83,220.32,31.29,220.25,31.37Z" style="fill:#79489e"/><path d="M222.43,34.42a9,9,0,0,0-.55,6.51c.35,1.13,2.29.53,1.87-.8a6.57,6.57,0,0,1,.57-4.91A1,1,0,1,0,222.43,34.42Z" style="fill:#79489e"/><path d="M214.75,30.53a15.25,15.25,0,0,0-2.69,9.71,9.32,9.32,0,0,0,3.84,7.14c.66.45,2.38-.43,1.36-1.11a6.71,6.71,0,0,1-2.33-2.81,9.24,9.24,0,0,1-.9-3.75,14.4,14.4,0,0,1,2.66-8.61C217.33,30.21,215.32,29.68,214.75,30.53Z" style="fill:#79489e"/><path d="M241.56,57.64A12.58,12.58,0,0,1,245,55.35a8.07,8.07,0,0,1,3.72-.67,5.24,5.24,0,0,1,2.86.75l.56,2.06.49,2.1c-.18,1.06-1.52,2.36-2.21,3.16A19.66,19.66,0,0,1,245.85,67a7.76,7.76,0,0,1-4.2.76,7,7,0,0,1-3.53-1.08c-1-.73-1.6,1.12-.91,1.64a6.39,6.39,0,0,0,1.85.92,9.17,9.17,0,0,0,2.32.53,8.91,8.91,0,0,0,5.1-.91c3.17-1.69,7-6,8.06-9.25a4.89,4.89,0,0,0-.24-4.18A6.65,6.65,0,0,0,251,53a8,8,0,0,0-5.49-.07,13.91,13.91,0,0,0-5.14,3.18C239.59,56.85,240.62,58.49,241.56,57.64Z" style="fill:#79489e"/><path d="M244.84,63.92a5.07,5.07,0,0,0,2.28-6c-.17-.4-.37.28-.43.44a2.7,2.7,0,0,0-.1,1.53c.3.72-.73,1.5-1.41,1.87S244.74,64,244.84,63.92Z" style="fill:#79489e"/><path d="M265.16,68.34c-2.69.48-5.32,1-8,1.59s-5.27,1.27-7.85,2c-.56.16-1.22,2.26-.6,2.09,5.2-1.43,10.4-2.53,15.78-3.48C265.13,70.41,265.81,68.23,265.16,68.34Z" style="fill:#79489e"/><path d="M256.85,72.16c-.55,1.89-1.49,5-.75,6.57.41,1,1.78.63,2.89.47a49.88,49.88,0,0,0,5.25-1.07c.65-.16.91-2.23.71-2.18a48.19,48.19,0,0,1-5.88,1.18c-1.39.18-1.9.16-2.21-1.2a8.91,8.91,0,0,1,.59-3.75C257.82,70.91,257.23,70.87,256.85,72.16Z" style="fill:#79489e"/><path d="M251.65,78A4.85,4.85,0,0,0,248,81.59c-.1.61,1.71,1.23,1.81.67a4.09,4.09,0,0,1,3-3.07C253.74,79,252.29,77.82,251.65,78Z" style="fill:#79489e"/><path d="M275.48,84.92a43.12,43.12,0,0,0-4.47-.23A8.46,8.46,0,0,0,266.62,86a6.11,6.11,0,0,0-2.57,3.83,3.84,3.84,0,0,0,2,4.7,18.2,18.2,0,0,0,6,1.83c.24,0,1-2,.56-2.11A31,31,0,0,1,267.42,93c-1.75-.64-3-1.59-2.49-3.26s2.38-2.57,4.43-2.8a30.15,30.15,0,0,1,5.7.15C275.36,87.16,275.84,84.94,275.48,84.92Z" style="fill:#79489e"/><path d="M261.43,85.32c1.49.45,4.39.77,5.29,1.94.95,1.33.17,3.19-1.61,4-2.88,1.31-6.92,1.4-9.84,2a2.39,2.39,0,0,1,.1.24c.06.14.14.33.24.52.19.37.47.72.8.66,1.78-.33,5-.52,7.68-1.18s4.75-1.85,4.11-4.41a5.39,5.39,0,0,0-1.1-2.22,6.47,6.47,0,0,0-1.87-1.39,28.65,28.65,0,0,0-4.92-1.67C260.39,83.83,260.84,85.14,261.43,85.32Z" style="fill:#79489e"/><path d="M284.19,109.29c-2.73-1.68-5.54-3.22-8.25-4.67s-5.62-2.73-8.36-3.94c-.25-.11.73,1.08,1.14,1.26,2.75,1.25,5.63,2.57,8.33,4.07s5.55,3.07,8.2,4.81C285.49,111,284.59,109.54,284.19,109.29Z" style="fill:#79489e"/><path d="M274.61,105a8.52,8.52,0,0,1-1.94,3.57c-1.2,1.06-2.4.44-3.38-.1-.53-.29-1.31-.94-2.2-1.45a3.87,3.87,0,0,0-2.6-.68,2.76,2.76,0,0,0-2.21,2.5,4.55,4.55,0,0,0,.53,2.85c.64,1,.85-.68.55-1.15s.56-2.06,1.49-2.37,2.15.69,2.78,1.06a11.77,11.77,0,0,0,3.54,1.78c2.63.51,3.89-2.93,4.45-4.52C275.81,106,274.86,104.29,274.61,105Z" style="fill:#79489e"/><path d="M283.27,104.57c-1.78,2.21-3.53,4.33-5.39,6.41-.75.82-.42,2,.66.87,1.91-2.08,3.68-4.19,5.45-6.38C284.69,104.6,284.27,103.31,283.27,104.57Z" style="fill:#79489e"/><path d="M287.69,128.57c-1.52-1.65-3.45-3.52-5.05-5.46s-3.07-3.9-3.39-6c0-.25-1.46-1.5-1.75-1.24a31.48,31.48,0,0,1-10,5.65,3,3,0,0,0,.59.68c.34.33.76.63,1.05.53a31.78,31.78,0,0,0,10.11-5.55c-.56-.43-1.17-.83-1.75-1.24a11.23,11.23,0,0,0,1.37,3.32,21.22,21.22,0,0,0,2.43,3.19c1.83,2.08,3.91,4.12,5.62,5.94C287.43,129,288.72,129.72,287.69,128.57Z" style="fill:#79489e"/><path d="M282.06,129.6c-1.77-3-4.45-6.64-9.4-5.4-1,.24-.83,2.11.09,1.9,4.23-1,6.56,2,8,4.59C281.42,131.87,282.5,130.37,282.06,129.6Z" style="fill:#79489e"/><path d="M41.82,68.24A26.07,26.07,0,0,1,46.17,77c.59,2.85.3,5.54-2,7.62-.81.74.69,2.32,1.58,1.49A7.31,7.31,0,0,0,48,82a15,15,0,0,0,.09-5.2c-.52-3.53-2.62-6.68-4.88-9.92C42.4,65.65,41.07,67.2,41.82,68.24Z" style="fill:#79489e"/><path d="M37,74.7a12.34,12.34,0,0,0,4,2.54c.41.15.79-1.84.23-2.07a11.57,11.57,0,0,1-3.82-2.47c-.17-.15-.41.23-.54.71S36.71,74.48,37,74.7Z" style="fill:#79489e"/><path d="M16.62,132.71a21.61,21.61,0,0,1,1.05-3.55,40.69,40.69,0,0,0,1.49-4.28,13,13,0,0,0,.55-4.22,5,5,0,0,0-1.81-3.49L17.21,119c4.67,1.57,9.35,2.81,14,1.75.92-.22.68-2.1-.38-1.88-4.36,1-8.72-.29-13.09-1.83-1.12-.4-1.31,1.33-.68,1.84,1.53,1.24.56,4.29.27,5.56-.28,1-.67,2.06-1,3.09A23.16,23.16,0,0,0,15,132.16C14.85,133.25,16.4,134,16.62,132.71Z" style="fill:#79489e"/><path d="M18.5,127.45c1-.89,3.61-.08,4.87.31a17.21,17.21,0,0,1,4.62,2.3c.67.45,1.18-1.3.5-1.77a18.72,18.72,0,0,0-5.6-2.68c-1.51-.42-3.72-1-4.86,0C17.52,126.09,17.81,128.09,18.5,127.45Z" style="fill:#79489e"/><path d="M61.58,39.58a36.11,36.11,0,0,1,.28,10.89,1.18,1.18,0,0,0,.61,1.16c3.48,2.48,6.31,6.19,9.66,8.94,1,.85,2.51,0,1.32-1-3.48-2.94-6.35-6.77-10-9.43l.6,1.17a35,35,0,0,0,.29-5.82,41.85,41.85,0,0,0-.55-6.06C63.6,38.14,61.36,38.2,61.58,39.58Z" style="fill:#79489e"/><path d="M67.92,46.16a41,41,0,0,0,.17,4.42,9.19,9.19,0,0,1-.46,4.13s2,1.07,2.18.7c1-2.46.16-5.59.31-8.48C70.14,46.65,67.94,45.94,67.92,46.16Z" style="fill:#79489e"/><path d="M106.77,18.5a167.78,167.78,0,0,1,6.17,17.93c.18.61.74.46,1,.31a9.14,9.14,0,0,0,2.9-2.85c.85-1.2,1.62-2.56,2.45-3.76,1.11-1.52,2.28-3,3.47-4.56.43-.58,1.3-1.36,1.38-2.29.22-2.46-2.61-2.18-3.92-2.5-1.93-.48-3.86-1.09-5.79-1.68s-3.91-1.36-5.89-2.14c-.87-.31-2,1.55-.86,2,2.23.8,4.47,1.69,6.68,2.35,1.1.34,2.19.63,3.27.91.9.25,3.1.26,3.8.92.82,0,.86.44.14,1.45l-1.07,1.37c-.71.93-1.41,1.8-2.07,2.77s-1.5,2.41-2.31,3.6a8.84,8.84,0,0,1-2.7,2.77l1,.31a168.47,168.47,0,0,0-5.91-18C108.07,16.23,106.35,17.52,106.77,18.5Z" style="fill:#79489e"/><path d="M106.25,29.94c1-1.21,2-2.4,2.94-3.64l2.86-3.74c1.91-2.49,3.72-5.29,5.6-8.2.81-1.26-.69-2-1.38-1-1.8,2.88-3.58,5.59-5.45,8s-3.72,4.88-5.66,7.25C104.37,29.66,105.47,30.94,106.25,29.94Z" style="fill:#79489e"/><path d="M24.49,148.77a45,45,0,0,1-4.54-3.3,33.27,33.27,0,0,1-4-3.86c-1.65-1.88-2.91-4.14-6.13-3.91-1.22.09-1.53,1.77-.08,1.64,2.61-.19,5.49,4.69,7.13,6.07A45.46,45.46,0,0,0,23,150.05C23.9,150.6,25.46,149.38,24.49,148.77Z" style="fill:#79489e"/><path d="M17.29,144.21a50.24,50.24,0,0,1,7.59-5,4.94,4.94,0,0,1,5,.68c1.8,1.31,1,2.22-.13,3.44-.4.42.6,1.82.89,1.47,1.9-2.23,2.72-4.17-.53-6.19-1.86-1.15-3.78-2.06-5.95-1.08-2.77,1.28-5.24,3.3-7.77,5.06C15.89,142.93,16.76,144.59,17.29,144.21Z" style="fill:#79489e"/><path d="M23.57,145.39c.21-1.78,1.62-3.24,3.7-4,.71-.25.06-1.84-.49-1.65-2.4.85-4,2.5-4.35,4.59a1.24,1.24,0,0,0,.41,1.19C23.13,145.71,23.51,145.8,23.57,145.39Z" style="fill:#79489e"/><path d="M29.38,86.31a22.35,22.35,0,0,0-7.77,4.5c-.46.41-.7,1.52.27,1.77A108.38,108.38,0,0,0,33.1,94.65a103,103,0,0,1,11.16,2.12.85.85,0,0,0,.91-1.37c-1.72-2.24-3.5-4.48-5.29-6.71-.86-1.08-2.59,0-1.74,1q2.8,3.36,5.39,6.66L44.45,95c-7-2-14.67-2.45-21.78-4.38L23,92.39a20.75,20.75,0,0,1,3.34-2.45,23.84,23.84,0,0,1,3.87-1.76A1,1,0,0,0,29.38,86.31Z" style="fill:#79489e"/><path d="M55.9,73.15c2.45-2.71,3.48-6.56,3.27-10.71a20.78,20.78,0,0,0-5.32-12.55c-.44-.49-2.29-.42-2.25-.37a20.51,20.51,0,0,1,5.32,12.42,17.85,17.85,0,0,1-.08,3,16.49,16.49,0,0,1-.53,2.88,13.51,13.51,0,0,1-2.6,4.86C53.63,72.8,55.61,73.49,55.9,73.15Z" style="fill:#79489e"/><path d="M47.2,62.21c3.95,4.52,8,8,13.61,8.95.62.11,1-1.77.27-1.9-5.37-.92-9.25-4.44-13-8.86C47.6,59.83,46.71,61.66,47.2,62.21Z" style="fill:#79489e"/><path d="M283.17,148.82a47,47,0,0,0-3.63-7.93c-.73-1.26-1.49-2.48-2.3-3.67s-1.76-2.33-2.7-3.43c-.79-.92-1.76.73-1.23,1.34a46.16,46.16,0,0,1,8.33,14.52C282.1,150.91,283.49,149.7,283.17,148.82Z" style="fill:#79489e"/><path d="M287.27,143.63q-4.92,1.26-9.94,2.09c-.6.11-1.9,1.65-1,1.51,3.35-.52,6.66-1.16,9.95-2C286.84,145.12,288.09,143.42,287.27,143.63Z" style="fill:#79489e"/><path d="M285.12,141.13c-3.59.39-7.18.66-10.79.85-.73,0-1.36,1.3-1.83,1.32,3.65-.15,7.28-.4,10.91-.76C284.05,142.48,284.88,141.15,285.12,141.13Z" style="fill:#79489e"/><path d="M280.5,134.9a34.15,34.15,0,0,0-3.83,2.09,36.66,36.66,0,0,0-3.45,2.44c-1.08.87.15,1.91,1.26,1a32.71,32.71,0,0,1,6.81-4.17C282.57,135.71,281.94,134.21,280.5,134.9Z" style="fill:#79489e"/></svg>